<mxfile host="Electron" agent="Mozilla/5.0 (Macintosh; Intel Mac OS X 10_15_7) AppleWebKit/537.36 (KHTML, like Gecko) draw.io/26.0.9 Chrome/128.0.6613.186 Electron/32.2.5 Safari/537.36" version="26.0.9">
  <diagram name="Page-1" id="MsBCmKi2TQuJCoBtTZeJ">
    <mxGraphModel dx="1114" dy="821" grid="1" gridSize="10" guides="1" tooltips="1" connect="1" arrows="1" fold="1" page="1" pageScale="1" pageWidth="827" pageHeight="1169" math="0" shadow="0">
      <root>
        <mxCell id="0" />
        <mxCell id="1" parent="0" />
        <mxCell id="Js3HImquym0re5LCtliG-21" style="edgeStyle=orthogonalEdgeStyle;rounded=0;orthogonalLoop=1;jettySize=auto;html=1;entryX=0.5;entryY=1;entryDx=0;entryDy=0;endArrow=block;endFill=1;" edge="1" parent="1" source="Js3HImquym0re5LCtliG-3" target="Js3HImquym0re5LCtliG-12">
          <mxGeometry relative="1" as="geometry" />
        </mxCell>
        <mxCell id="Js3HImquym0re5LCtliG-3" value="&amp;nbsp;&lt;b&gt;인프라스트럭처 계층&lt;/b&gt;" style="rounded=1;whiteSpace=wrap;html=1;fillColor=#f5f5f5;strokeColor=#666666;fontColor=#333333;align=left;" vertex="1" parent="1">
          <mxGeometry x="52" y="340" width="378" height="60" as="geometry" />
        </mxCell>
        <mxCell id="Js3HImquym0re5LCtliG-4" value="UI&lt;div&gt;프레임워크&lt;/div&gt;" style="rounded=0;whiteSpace=wrap;html=1;" vertex="1" parent="1">
          <mxGeometry x="200" y="350" width="62" height="40" as="geometry" />
        </mxCell>
        <mxCell id="Js3HImquym0re5LCtliG-5" value="DB" style="rounded=0;whiteSpace=wrap;html=1;" vertex="1" parent="1">
          <mxGeometry x="158" y="350" width="32" height="40" as="geometry" />
        </mxCell>
        <mxCell id="Js3HImquym0re5LCtliG-6" value="메시지&lt;div&gt;버스&lt;/div&gt;" style="rounded=0;whiteSpace=wrap;html=1;" vertex="1" parent="1">
          <mxGeometry x="338" y="350" width="80" height="40" as="geometry" />
        </mxCell>
        <mxCell id="Js3HImquym0re5LCtliG-7" style="edgeStyle=orthogonalEdgeStyle;rounded=0;orthogonalLoop=1;jettySize=auto;html=1;entryX=0.5;entryY=0;entryDx=0;entryDy=0;endArrow=none;endFill=1;startArrow=block;startFill=1;" edge="1" parent="1" source="Js3HImquym0re5LCtliG-8" target="Js3HImquym0re5LCtliG-12">
          <mxGeometry relative="1" as="geometry" />
        </mxCell>
        <mxCell id="Js3HImquym0re5LCtliG-8" value="&amp;nbsp;&lt;b&gt;비즈니스 로직 계층&lt;/b&gt;" style="rounded=1;whiteSpace=wrap;html=1;fillColor=#f5f5f5;strokeColor=#666666;fontColor=#333333;align=left;" vertex="1" parent="1">
          <mxGeometry x="52" y="160" width="378" height="60" as="geometry" />
        </mxCell>
        <mxCell id="Js3HImquym0re5LCtliG-9" value="규칙" style="rounded=0;whiteSpace=wrap;html=1;" vertex="1" parent="1">
          <mxGeometry x="247" y="170" width="80" height="40" as="geometry" />
        </mxCell>
        <mxCell id="Js3HImquym0re5LCtliG-10" value="엔티티" style="rounded=0;whiteSpace=wrap;html=1;" vertex="1" parent="1">
          <mxGeometry x="157" y="170" width="80" height="40" as="geometry" />
        </mxCell>
        <mxCell id="Js3HImquym0re5LCtliG-11" value="프로세스" style="rounded=0;whiteSpace=wrap;html=1;" vertex="1" parent="1">
          <mxGeometry x="337" y="170" width="80" height="40" as="geometry" />
        </mxCell>
        <mxCell id="Js3HImquym0re5LCtliG-12" value="&amp;nbsp;&lt;b&gt;애플리케이션 계층&lt;/b&gt;" style="rounded=1;whiteSpace=wrap;html=1;fillColor=#f5f5f5;strokeColor=#666666;fontColor=#333333;align=left;" vertex="1" parent="1">
          <mxGeometry x="52" y="250" width="378" height="60" as="geometry" />
        </mxCell>
        <mxCell id="Js3HImquym0re5LCtliG-13" value="액션" style="rounded=0;whiteSpace=wrap;html=1;" vertex="1" parent="1">
          <mxGeometry x="247" y="260" width="80" height="40" as="geometry" />
        </mxCell>
        <mxCell id="Js3HImquym0re5LCtliG-14" value="액션" style="rounded=0;whiteSpace=wrap;html=1;" vertex="1" parent="1">
          <mxGeometry x="157" y="260" width="80" height="40" as="geometry" />
        </mxCell>
        <mxCell id="Js3HImquym0re5LCtliG-15" value="액션" style="rounded=0;whiteSpace=wrap;html=1;" vertex="1" parent="1">
          <mxGeometry x="337" y="260" width="80" height="40" as="geometry" />
        </mxCell>
        <mxCell id="Js3HImquym0re5LCtliG-20" value="외부&lt;div&gt;제공자&lt;/div&gt;" style="rounded=0;whiteSpace=wrap;html=1;" vertex="1" parent="1">
          <mxGeometry x="270" y="350" width="60" height="40" as="geometry" />
        </mxCell>
      </root>
    </mxGraphModel>
  </diagram>
</mxfile>
